<svg width="48" height="48" viewBox="0 0 48 48" fill="none" xmlns="http://www.w3.org/2000/svg">
  <circle cx="24" cy="24" r="24" fill="#E5E7EB"/>
  <path d="M24 14C18.4772 14 14 18.4772 14 24C14 29.5228 18.4772 34 24 34C29.5228 34 34 29.5228 34 24C34 18.4772 29.5228 14 24 14ZM24 16C28.4183 16 32 19.5817 32 24C32 28.4183 28.4183 32 24 32C19.5817 32 16 28.4183 16 24C16 19.5817 19.5817 16 24 16Z" fill="#9CA3AF"/>
  <path d="M22 19V22H20V26H22V29H26V26H28V22H26V19H22ZM24 22H26V26H24V22Z" fill="#9CA3AF"/>
</svg>